<?xml version="1.0" encoding="UTF-8" standalone="no"?>
<!-- Generator: Adobe Illustrator 17.0.1, SVG Export Plug-In . SVG Version: 6.00 Build 0)  -->

<svg
   xmlns:dc="http://purl.org/dc/elements/1.1/"
   xmlns:cc="http://creativecommons.org/ns#"
   xmlns:rdf="http://www.w3.org/1999/02/22-rdf-syntax-ns#"
   xmlns:svg="http://www.w3.org/2000/svg"
   xmlns="http://www.w3.org/2000/svg"
   xmlns:xlink="http://www.w3.org/1999/xlink"
   xmlns:sodipodi="http://sodipodi.sourceforge.net/DTD/sodipodi-0.dtd"
   xmlns:inkscape="http://www.inkscape.org/namespaces/inkscape"
   version="1.1"
   x="0px"
   y="0px"
   width="86px"
   height="86px"
   viewBox="0 0 86 86"
   enable-background="new 0 0 86 86"
   xml:space="preserve"
   id="svg3395"
   inkscape:version="0.91 r13725"
   sodipodi:docname="taskwarrior.svg"><metadata
     id="metadata3433"><rdf:RDF><cc:Work
         rdf:about=""><dc:format>image/svg+xml</dc:format><dc:type
           rdf:resource="http://purl.org/dc/dcmitype/StillImage" /><dc:title></dc:title></cc:Work></rdf:RDF></metadata><defs
     id="defs3431" /><sodipodi:namedview
     pagecolor="#ffffff"
     bordercolor="#666666"
     borderopacity="1"
     objecttolerance="10"
     gridtolerance="10"
     guidetolerance="10"
     inkscape:pageopacity="0"
     inkscape:pageshadow="2"
     inkscape:window-width="1918"
     inkscape:window-height="1062"
     id="namedview3429"
     showgrid="false"
     inkscape:zoom="7.1368452"
     inkscape:cx="29.721104"
     inkscape:cy="49.551964"
     inkscape:window-x="0"
     inkscape:window-y="16"
     inkscape:window-maximized="0"
     inkscape:current-layer="Layer_1" /><g
     id="Layer_2"
     display="none"><rect
       x="-21"
       y="-19"
       display="inline"
       fill="#32332F"
       width="497"
       height="300"
       id="rect3398" /></g><g
     id="Layer_1"><linearGradient
       id="SVGID_1_"
       gradientUnits="userSpaceOnUse"
       x1="12.8065"
       y1="73.193497"
       x2="85.282898"
       y2="0.71710002"
       xlink:href="#SVGID_2_"><stop
         offset="0"
         style="stop-color:#000000;stop-opacity:1"
         id="stop3402" /><stop
         offset="0.9951"
         style="stop-color:#999999;stop-opacity:1"
         id="stop3404" /></linearGradient><path
       fill="url(#SVGID_1_)"
       d="M85.699,1.723c0-0.786-0.637-1.423-1.423-1.423c0,0-40.641,0-41.276,0C19.417,0.3,0.3,19.417,0.3,43   c0,23.582,19.117,42.7,42.7,42.7S85.7,66.582,85.7,43C85.7,42.364,85.699,1.723,85.699,1.723z"
       id="path3406"
       style="opacity:1;fill-opacity:1.0" /><g
       id="g3408"><linearGradient
         id="SVGID_2_"
         gradientUnits="userSpaceOnUse"
         x1="20.3551"
         y1="65.645"
         x2="65.645"
         y2="20.355"><stop
           offset="0"
           style="stop-color:#DCDCE0"
           id="stop3411" /><stop
           offset="1"
           style="stop-color:#FFFFFF"
           id="stop3413" /></linearGradient><circle
         cx="43"
         cy="43"
         r="32.025"
         id="circle3415"
         fill="url(#SVGID_2_)" /></g><g
       id="g3417"
       transform="translate(-90.972799,10.685557)"><path
         style="fill:#000000"
         d="m 126.58989,59.825884 c -4.2619,-2.308869 -12.70623,-9.395727 -12.37817,-10.388294 2.55686,-7.735831 3.56381,-12.476206 3.58773,-16.889687 0.0151,-2.6523 -0.11353,-3.444163 -0.97853,-6.06057 -0.91401,-2.764481 -0.98032,-3.224253 -0.81394,-5.644219 0.58823,-8.55501 4.77209,-14.3625337 11.95582,-16.5955677 2.8557,-0.8876857 8.77716,-0.9296416 11.74608,-0.083229 5.86613,1.6723935 9.63154,5.2628971 11.47847,10.9452677 0.66964,2.060263 0.81484,3.092839 0.84335,5.997329 0.0305,3.110612 -0.0506,3.698896 -0.71486,5.18658 -0.62862,1.407783 -0.76861,2.273482 -0.86928,5.375664 -0.13874,4.277065 0.50125,8.277327 2.24455,14.028674 0.57863,1.90892 1.05205,3.663299 1.05205,3.898623 0,0.498905 -4.41213,4.746859 -6.94854,6.689986 -3.38492,2.59316 -7.39406,4.787647 -8.74664,4.787647 l -0.77985,0 0,-12.454274 0,-12.454272 4.69396,-3.449185 c 4.53536,-3.332659 4.69962,-3.491491 4.8619,-4.701367 0.0924,-0.688695 0.14236,-1.27768 0.11126,-1.308852 -0.0312,-0.03118 -2.45929,0.341955 -5.39582,0.829166 -6.63861,1.10145 -8.59635,1.100925 -15.1021,-0.0041 -2.85261,-0.484502 -5.23142,-0.836274 -5.28622,-0.781711 -0.0548,0.05456 0.0156,0.681812 0.15637,1.393893 0.24295,1.228552 0.48185,1.461505 4.67605,4.559743 l 4.42001,3.265034 0.0797,12.552926 0.0797,12.552927 -0.8424,-0.0042 c -0.46331,-0.0024 -1.87208,-0.562113 -3.13058,-1.243908 z m 3.05093,-11.415781 0,-11.748711 -4.34758,-3.2102 c -4.66828,-3.447001 -5.05989,-3.946649 -5.09309,-6.498052 l -0.0172,-1.323463 1.14409,0.175385 c 0.62926,0.09645 3.26642,0.520404 5.86037,0.942094 6.05872,0.984952 7.78195,0.965394 14.60865,-0.165808 3.38235,-0.560466 5.73852,-0.821711 5.90545,-0.654782 0.40358,0.403587 -0.0587,3.350015 -0.63577,4.051878 -0.27073,0.329318 -2.3457,1.948348 -4.61101,3.597842 l -4.11875,2.999079 -0.0799,11.791723 c -0.0439,6.485449 0.008,11.791726 0.11489,11.791726 0.47312,0 4.11464,-2.026272 6.06676,-3.375758 3.31169,-2.289384 8.46486,-6.993798 8.29651,-7.574052 -0.0784,-0.270147 -0.56203,-1.932739 -1.0748,-3.69465 -1.70873,-5.871401 -2.03611,-7.996096 -2.02145,-13.118996 0.0121,-4.410592 0.0692,-4.868046 0.839,-6.795284 1.37363,-3.438483 0.90195,-8.341177 -1.21967,-12.677602 -2.0283,-4.1457118 -6.33885,-7.2687216 -11.23726,-8.1414553 -10.59441,-1.8875674 -18.67724,3.2048324 -20.71042,13.0481293 -0.72221,3.496457 -0.63029,5.581575 0.35477,8.046662 0.79579,1.991442 0.8363,2.338556 0.81418,6.977188 -0.0251,5.27121 -0.33841,7.097775 -2.31688,13.508747 l -0.96767,3.13559 1.19782,1.235953 c 1.59829,1.649136 5.71094,5.1073 7.60479,6.394555 1.6374,1.112943 5.03938,3.012656 5.4154,3.024045 0.12591,0.0038 0.22882,-5.279991 0.22882,-11.741783 z"
         id="path3502"
         inkscape:connector-curvature="0"
         sodipodi:nodetypes="csccsssssccsssscccsccsscssccccccccssccssscscssscsccsssscscssccc" /></g></g></svg>